# xmcd
#
# Track frame offsets:
#	150
#	15178
#	30033
#	49890
#	66633
#	81758
#	96795
#	110418
#	128125
#	142688
#	158299
#	175124
#	192679
#	211184
#	226944
#	244554
#	260927
#	280784
#	296499
#	312227
#	326993
#
# Disc length: 4566 seconds
#
# Revision: 1
# Processed by: cddbd v1.5.1PL0 Copyright (c) Steve Scherf et al.
# Submitted via: EasyCDDAExtractor 6.5.9.5
#
DISCID=1e11d415
DTITLE=Bellamy Brothers - 21 Greatest Hits
DYEAR=2005
DGENRE=Country
TTITLE0=Let Your Love Flow
TTITLE1=If I Said You Have A Beautiful Body Would You Hold It Against Me
TTITLE2=You Ain't Just Whistlin' Dixie
TTITLE3=Sugar Daddy
TTITLE4=Dancin' Cowboys
TTITLE5=Lovers Live Longer
TTITLE6=Do You Love As Good As You Look
TTITLE7=For All The Wrong Reasons
TTITLE8=Get Into Reggae Cowboy
TTITLE9=Redneck Girl
TTITLE10=Feelin' The Feelin'
TTITLE11=When I'm Away From You
TTITLE12=Old Hippie
TTITLE13=Lie To You For Your Love
TTITLE14=Too Much Is Not Enough
TTITLE15=Forget About Me
TTITLE16=World's Greatest Lover
TTITLE17=I Need More Of You
TTITLE18=Strong Weakness
TTITLE19=I Love Her Mind
TTITLE20=Kids of the Baby Boom
EXTD=
EXTT0=
EXTT1=
EXTT2=
EXTT3=
EXTT4=
EXTT5=
EXTT6=
EXTT7=
EXTT8=
EXTT9=
EXTT10=
EXTT11=
EXTT12=
EXTT13=
EXTT14=
EXTT15=
EXTT16=
EXTT17=
EXTT18=
EXTT19=
EXTT20=
PLAYORDER=
